<?xml version="1.0" encoding="UTF-8" standalone="no"?>
<!-- Created with Inkscape (http://www.inkscape.org/) -->

<svg
   width="108.93548mm"
   height="87.645393mm"
   viewBox="0 0 108.93548 87.645393"
   version="1.1"
   id="svg5"
   xml:space="preserve"
   xmlns="http://www.w3.org/2000/svg"
   xmlns:svg="http://www.w3.org/2000/svg"><defs
     id="defs2" /><g
     id="layer1"
     transform="translate(-5.6310359)"><path
       id="path184"
       style="display:inline;fill:#f26822;fill-opacity:1;fill-rule:evenodd;stroke:#000000;stroke-width:0;paint-order:markers stroke fill"
       d="M 60.09851,5.0050241e-7 A 54.467743,43.82259 0 0 0 5.6310364,43.822651 54.467743,43.82259 0 0 0 8.2272604,57.112281 H 111.96976 A 54.467743,43.82259 0 0 0 114.56651,43.822651 54.467743,43.82259 0 0 0 60.09851,5.0050241e-7 Z" /><path
       id="path184-1"
       style="display:inline;fill:#4d4d4d;fill-opacity:1;fill-rule:evenodd;stroke:#000000;stroke-width:0;paint-order:markers stroke fill"
       d="m 7.5585674,55.354761 a 54.467743,43.82259 0 0 0 25.3064656,26.419584 54.467743,43.82259 0 0 0 54.467477,0 54.467743,43.82259 0 0 0 25.30595,-26.419584 z" /><path
       style="display:inline;fill:#4d4d4d;fill-opacity:1;fill-rule:evenodd;stroke:#000000;stroke-width:0;paint-order:markers stroke fill"
       d="m 12.376815,64.059765 c 0,0 2.814576,5.20547 0.305488,13.29728 -2.509089,8.09181 -6.4609026,7.96636 -6.4609026,7.96636 0,0 3.9518136,1.80315 11.1654426,1.43476 7.213629,-0.3684 10.472047,-6.9655 19.122829,-4.32292"
       id="path1039" /><path
       style="fill:#4d4d4d;fill-opacity:1;fill-rule:evenodd;stroke:#000000;stroke-width:0;paint-order:markers stroke fill"
       d="M 48.813352,56.647041 49.061383,34.15305 59.354686,47.410866 71.260196,32.929259 71.384198,56.647041 Z"
       id="path9391" /><g
       aria-label="SMS"
       id="text1095"
       style="font-weight:bold;font-size:35.2778px;line-height:0;-inkscape-font-specification:'sans-serif Bold';letter-spacing:1.651px;display:inline;fill:#ffffff;fill-rule:evenodd;stroke:#000000;stroke-width:0;paint-order:markers stroke fill"><path
         d="m 40.162865,48.585512 q 0,3.789608 -3.221167,6.166726 -3.203941,2.359892 -8.716097,2.359892 -3.186716,0 -5.563833,-0.551216 -2.359892,-0.568441 -4.426951,-1.429716 v -6.149499 h 0.723471 q 2.049833,1.636421 4.58198,2.514921 2.549372,0.8785 4.892039,0.8785 0.602892,0 1.584745,-0.103353 0.981852,-0.103353 1.60197,-0.34451 0.757922,-0.310058 1.240235,-0.775147 0.499539,-0.465088 0.499539,-1.378039 0,-0.844049 -0.72347,-1.446941 -0.706245,-0.620117 -2.084284,-0.947402 -1.446941,-0.34451 -3.066137,-0.637343 -1.601971,-0.310059 -3.014461,-0.775147 -3.238392,-1.050755 -4.668107,-2.842206 -1.412491,-1.808676 -1.412491,-4.478627 0,-3.582901 3.203941,-5.83944 3.221167,-2.273765 8.268235,-2.273765 2.532147,0 4.995392,0.499539 2.48047,0.482314 4.289147,1.22301 v 5.908343 h -0.706245 q -1.550294,-1.240236 -3.806833,-2.067059 -2.239314,-0.844049 -4.58198,-0.844049 -0.826824,0 -1.653647,0.120578 -0.809598,0.103353 -1.56752,0.413412 -0.671794,0.258382 -1.154108,0.792373 -0.482313,0.516764 -0.482313,1.188558 0,1.016304 0.775147,1.56752 0.775147,0.53399 2.928333,0.981853 1.41249,0.292833 2.704402,0.568441 1.309137,0.275608 2.807754,0.757921 2.945559,0.964628 4.340823,2.6355 1.412491,1.653647 1.412491,4.306372 z"
         id="path2008" /><path
         d="M 73.233158,56.647041 H 66.653022 V 39.473229 L 61.898787,50.61812 H 57.334032 L 52.579797,39.473229 V 56.647041 H 46.34417 V 30.998288 h 7.682568 l 5.770539,12.86744 5.753313,-12.86744 h 7.682568 z"
         id="path2010" /><path
         d="m 101.96262,48.585512 q 0,3.789608 -3.221163,6.166726 -3.203941,2.359892 -8.716097,2.359892 -3.186716,0 -5.563833,-0.551216 -2.359892,-0.568441 -4.426951,-1.429716 v -6.149499 h 0.723471 q 2.049833,1.636421 4.58198,2.514921 2.549372,0.8785 4.892038,0.8785 0.602893,0 1.584745,-0.103353 0.981853,-0.103353 1.601971,-0.34451 0.757921,-0.310058 1.240235,-0.775147 0.499539,-0.465088 0.499539,-1.378039 0,-0.844049 -0.72347,-1.446941 -0.706245,-0.620117 -2.084284,-0.947402 -1.446941,-0.34451 -3.066137,-0.637343 -1.601971,-0.310059 -3.014461,-0.775147 -3.238392,-1.050755 -4.668108,-2.842206 -1.41249,-1.808676 -1.41249,-4.478627 0,-3.582901 3.203941,-5.83944 3.221167,-2.273765 8.268235,-2.273765 2.532147,0 4.995392,0.499539 2.48047,0.482314 4.289147,1.22301 v 5.908343 h -0.70625 q -1.550289,-1.240236 -3.806828,-2.067059 -2.239314,-0.844049 -4.581981,-0.844049 -0.826823,0 -1.653646,0.120578 -0.809598,0.103353 -1.56752,0.413412 -0.671794,0.258382 -1.154108,0.792373 -0.482313,0.516764 -0.482313,1.188558 0,1.016304 0.775147,1.56752 0.775147,0.53399 2.928333,0.981853 1.41249,0.292833 2.704401,0.568441 1.309138,0.275608 2.807755,0.757921 2.945559,0.964628 4.34082,2.6355 1.41249,1.653647 1.41249,4.306372 z"
         id="path2012" /></g><path
       id="path184-14"
       style="display:inline;fill:#ffffff;fill-opacity:1;fill-rule:evenodd;stroke:#000000;stroke-width:0;paint-order:markers stroke fill"
       d="m 6.9565374,53.403461 a 54.467743,43.82259 0 0 0 2.445328,6.387214 H 52.579592 v -6.387214 z m 59.6960926,0 v 6.387214 h 44.14305 a 54.467743,43.82259 0 0 0 2.44533,-6.387214 z" /></g></svg>
