<?xml version="1.0" encoding="UTF-8" standalone="no"?>
<!-- Created with Inkscape (http://www.inkscape.org/) -->

<svg
   width="91.676964mm"
   height="28.525375mm"
   viewBox="0 0 91.676964 28.525375"
   version="1.1"
   id="svg5"
   xml:space="preserve"
   xmlns="http://www.w3.org/2000/svg"
   xmlns:svg="http://www.w3.org/2000/svg"><defs
     id="defs2" /><g
     id="layer1"
     transform="translate(-0.56126598)"><path
       id="path184"
       style="display:inline;fill:#f26822;fill-opacity:1;fill-rule:evenodd;stroke:#000000;stroke-width:0;paint-order:markers stroke fill"
       d="M 72.007633,5.0013169e-7 A 20.230514,14.262653 0 0 0 51.777213,14.262671 a 20.230514,14.262653 0 0 0 0.96429,4.32529 h 38.53224 a 20.230514,14.262653 0 0 0 0.96449,-4.32529 A 20.230514,14.262653 0 0 0 72.007633,5.0013169e-7 Z" /><path
       id="path184-1"
       style="display:inline;fill:#4d4d4d;fill-opacity:1;fill-rule:evenodd;stroke:#000000;stroke-width:0;paint-order:markers stroke fill"
       d="m 52.493133,18.015951 a 20.230514,14.262653 0 0 0 9.39938,8.59861 20.230514,14.262653 0 0 0 20.23042,0 20.230514,14.262653 0 0 0 9.39918,-8.59861 z" /><path
       style="display:inline;fill:#4d4d4d;fill-opacity:1;fill-rule:evenodd;stroke:#000000;stroke-width:0;paint-order:markers stroke fill"
       d="m 54.282743,20.849111 c 0,0 1.04539,1.69419 0.11346,4.32778 -0.93193,2.63359 -2.39972,2.59276 -2.39972,2.59276 0,0 1.46779,0.58686 4.14709,0.46696 2.6793,-0.1199 3.88955,-2.26701 7.10264,-1.40695"
       id="path1039" /><path
       style="fill:#4d4d4d;fill-opacity:1;fill-rule:evenodd;stroke:#000000;stroke-width:0;paint-order:markers stroke fill"
       d="m 68.823663,18.436541 0.0659,-6.36812 2.73474,3.75333 3.16308,-4.09979 0.0329,6.71458 z"
       id="path9391" /><g
       aria-label="SMS"
       transform="scale(1.0682739,0.93608951)"
       id="text1095"
       style="font-weight:bold;font-size:12.2655px;line-height:0;-inkscape-font-specification:'sans-serif Bold';letter-spacing:0.574027px;display:inline;fill:#ffffff;fill-rule:evenodd;stroke:#000000;stroke-width:0;paint-order:markers stroke fill"><path
         d="m 60.474239,16.892425 q 0,1.317583 -1.119946,2.144067 -1.113956,0.820495 -3.030441,0.820495 -1.107967,0 -1.934451,-0.191648 -0.820495,-0.197638 -1.539176,-0.497088 v -2.138078 h 0.251538 q 0.712693,0.568956 1.593078,0.874396 0.886374,0.305439 1.70088,0.305439 0.209615,0 0.550989,-0.03593 0.341374,-0.03593 0.556978,-0.11978 0.263517,-0.107802 0.431209,-0.269505 0.173682,-0.161704 0.173682,-0.479122 0,-0.293461 -0.251539,-0.503077 -0.24555,-0.215604 -0.724671,-0.329395 -0.503077,-0.119781 -1.066044,-0.221594 -0.556978,-0.107802 -1.048078,-0.269506 -1.125934,-0.365329 -1.623022,-0.988187 -0.491099,-0.628846 -0.491099,-1.557143 0,-1.245715 1.113956,-2.030276 1.119946,-0.79055 2.874727,-0.79055 0.880385,0 1.736814,0.173682 0.862418,0.167692 1.491264,0.425219 v 2.054232 h -0.245549 q -0.539012,-0.431209 -1.323572,-0.718681 -0.778572,-0.293462 -1.593078,-0.293462 -0.287473,0 -0.574945,0.04192 -0.281484,0.03593 -0.545001,0.143736 -0.233571,0.08983 -0.401264,0.275495 -0.167692,0.17967 -0.167692,0.413242 0,0.353352 0.269506,0.545 0.269505,0.18566 1.018132,0.341374 0.491099,0.101813 0.940275,0.197637 0.455165,0.09582 0.976209,0.263517 1.024122,0.335385 1.509232,0.916319 0.491099,0.574945 0.491099,1.497253 z"
         id="path2041" /><path
         d="m 71.972227,19.695284 h -2.287803 v -5.971047 l -1.652968,3.874892 H 66.444367 L 64.7914,13.724237 v 5.971047 h -2.168023 v -8.917642 h 2.6711 l 2.006319,4.473794 2.000331,-4.473794 h 2.6711 z"
         id="path2043" /><path
         d="m 81.960983,16.892425 q 0,1.317583 -1.119946,2.144067 -1.113956,0.820495 -3.030441,0.820495 -1.107967,0 -1.934451,-0.191648 -0.820495,-0.197638 -1.539177,-0.497088 v -2.138078 h 0.251539 q 0.712693,0.568956 1.593078,0.874396 0.886374,0.305439 1.70088,0.305439 0.209615,0 0.550989,-0.03593 0.341374,-0.03593 0.556978,-0.11978 0.263517,-0.107802 0.431209,-0.269505 0.173681,-0.161704 0.173681,-0.479122 0,-0.293461 -0.251538,-0.503077 -0.24555,-0.215604 -0.724671,-0.329395 -0.503077,-0.119781 -1.066044,-0.221594 -0.556978,-0.107802 -1.048078,-0.269506 -1.125934,-0.365329 -1.623022,-0.988187 -0.491099,-0.628846 -0.491099,-1.557143 0,-1.245715 1.113956,-2.030276 1.119946,-0.79055 2.874727,-0.79055 0.880385,0 1.736814,0.173682 0.862418,0.167692 1.491264,0.425219 v 2.054232 h -0.245549 q -0.539012,-0.431209 -1.323573,-0.718681 -0.778571,-0.293462 -1.593077,-0.293462 -0.287473,0 -0.574945,0.04192 -0.281484,0.03593 -0.545001,0.143736 -0.233571,0.08983 -0.401264,0.275495 -0.167692,0.17967 -0.167692,0.413242 0,0.353352 0.269506,0.545 0.269505,0.18566 1.018132,0.341374 0.491099,0.101813 0.940275,0.197637 0.455165,0.09582 0.976209,0.263517 1.024122,0.335385 1.509232,0.916319 0.491099,0.574945 0.491099,1.497253 z"
         id="path2045" /></g><path
       id="path184-14"
       style="display:inline;fill:#ffffff;fill-opacity:1;fill-rule:evenodd;stroke:#000000;stroke-width:0;paint-order:markers stroke fill"
       d="m 52.269533,17.380871 a 20.230514,14.262653 0 0 0 0.90825,2.07881 h 16.03715 v -2.07881 z m 22.17244,0 v 2.07881 h 16.3957 a 20.230514,14.262653 0 0 0 0.90825,-2.07881 z" /><g
       aria-label="Monero"
       id="text1059"
       style="font-weight:bold;font-size:12.2655px;-inkscape-font-specification:'sans-serif Bold';fill:#ffffff;fill-rule:evenodd;stroke:#000000;stroke-width:0;paint-order:markers stroke fill"><path
         d="M 9.9101164,18.229572 H 7.6223131 V 12.258526 L 5.9693454,16.133417 H 4.3822567 L 2.7292889,12.258526 v 5.971046 H 0.56126598 V 9.3119309 H 3.2323661 L 5.2386857,13.785724 7.2390163,9.3119309 h 2.6711001 z"
         id="path2028" /><path
         d="m 18.941549,14.869736 q 0,1.658956 -0.97022,2.617199 -0.964231,0.952253 -2.713023,0.952253 -1.748792,0 -2.719012,-0.952253 -0.964232,-0.958243 -0.964232,-2.617199 0,-1.670935 0.970221,-2.623188 0.976209,-0.952254 2.713023,-0.952254 1.76077,0 2.719012,0.958243 0.964231,0.958242 0.964231,2.617199 z m -2.653133,1.635 q 0.209616,-0.257527 0.311429,-0.616868 0.107802,-0.36533 0.107802,-1.006154 0,-0.592913 -0.107802,-0.994177 -0.107802,-0.401264 -0.299451,-0.640824 -0.191648,-0.24555 -0.461154,-0.347363 -0.269506,-0.101813 -0.580934,-0.101813 -0.311429,0 -0.556979,0.08385 -0.23956,0.08385 -0.461154,0.335385 -0.197637,0.233571 -0.317417,0.640824 -0.113792,0.407253 -0.113792,1.024122 0,0.550989 0.101814,0.958242 0.101813,0.401264 0.29945,0.646813 0.191649,0.233572 0.455165,0.341374 0.269506,0.107802 0.61088,0.107802 0.293461,0 0.556978,-0.09582 0.269506,-0.101813 0.455165,-0.335385 z"
         id="path2030" /><path
         d="m 27.242322,18.229572 h -2.168023 v -3.33588 q 0,-0.407253 -0.04192,-0.808517 -0.04192,-0.407253 -0.143736,-0.598902 -0.119781,-0.221593 -0.353352,-0.323406 -0.227583,-0.101814 -0.640825,-0.101814 -0.293461,0 -0.598901,0.09583 -0.299451,0.09582 -0.652802,0.305439 v 4.767255 H 20.486715 V 11.50391 h 2.156045 v 0.742638 q 0.574945,-0.449176 1.101978,-0.688737 0.533022,-0.239561 1.179836,-0.239561 1.09,0 1.70088,0.634836 0.616868,0.634835 0.616868,1.898517 z"
         id="path2032" /><path
         d="m 35.848534,15.265011 h -4.934947 q 0.04791,0.790549 0.598901,1.20978 0.556979,0.419231 1.635001,0.419231 0.682748,0 1.323572,-0.245549 0.640824,-0.24555 1.012143,-0.527034 h 0.239561 v 1.730825 q -0.73066,0.293462 -1.377473,0.42522 -0.646814,0.131759 -1.431375,0.131759 -2.024286,0 -3.102309,-0.91033 -1.078022,-0.91033 -1.078022,-2.593243 0,-1.664946 1.018132,-2.635166 1.024122,-0.97621 2.802859,-0.97621 1.640989,0 2.467473,0.832473 0.826484,0.826484 0.826484,2.383628 z m -2.144067,-1.263682 q -0.01797,-0.676759 -0.335385,-1.018133 -0.317417,-0.341373 -0.988187,-0.341373 -0.622857,0 -1.024121,0.323406 -0.401264,0.323407 -0.449176,1.0361 z"
         id="path2034" /><path
         d="m 42.244804,13.558142 h -0.191649 q -0.137747,-0.04791 -0.443187,-0.07187 -0.305439,-0.02396 -0.509066,-0.02396 -0.461154,0 -0.814506,0.05989 -0.353352,0.05989 -0.760605,0.203626 v 4.503738 H 37.369747 V 11.50391 h 2.156044 v 0.988187 q 0.712693,-0.610879 1.239726,-0.808517 0.527033,-0.203626 0.97022,-0.203626 0.113792,0 0.257528,0.006 0.143736,0.006 0.251539,0.01797 z"
         id="path2036" /><path
         d="m 50.341947,14.869736 q 0,1.658956 -0.97022,2.617199 -0.964231,0.952253 -2.713023,0.952253 -1.748792,0 -2.719012,-0.952253 -0.964231,-0.958243 -0.964231,-2.617199 0,-1.670935 0.97022,-2.623188 0.976209,-0.952254 2.713023,-0.952254 1.76077,0 2.719012,0.958243 0.964231,0.958242 0.964231,2.617199 z m -2.653133,1.635 q 0.209616,-0.257527 0.311429,-0.616868 0.107802,-0.36533 0.107802,-1.006154 0,-0.592913 -0.107802,-0.994177 -0.107802,-0.401264 -0.299451,-0.640824 -0.191648,-0.24555 -0.461154,-0.347363 -0.269505,-0.101813 -0.580934,-0.101813 -0.311429,0 -0.556978,0.08385 -0.239561,0.08385 -0.461154,0.335385 -0.197638,0.233571 -0.317418,0.640824 -0.113791,0.407253 -0.113791,1.024122 0,0.550989 0.101813,0.958242 0.101813,0.401264 0.299451,0.646813 0.191648,0.233572 0.455165,0.341374 0.269505,0.107802 0.610879,0.107802 0.293462,0 0.556978,-0.09582 0.269506,-0.101813 0.455165,-0.335385 z"
         id="path2038" /></g></g></svg>
