<?xml version="1.0" encoding="UTF-8" standalone="no"?>
<svg
   enable-background="new 0 0 595.28 841.89"
   version="1.1"
   viewBox="0 0 365.683 445.38836"
   id="svg3801"
   sodipodi:docname="smartphone-1833950.svg"
   inkscape:version="1.2 (dc2aedaf03, 2022-05-15)"
   width="365.68301"
   height="445.38837"
   xmlns:inkscape="http://www.inkscape.org/namespaces/inkscape"
   xmlns:sodipodi="http://sodipodi.sourceforge.net/DTD/sodipodi-0.dtd"
   xmlns:xlink="http://www.w3.org/1999/xlink"
   xmlns="http://www.w3.org/2000/svg"
   xmlns:svg="http://www.w3.org/2000/svg">
  <defs
     id="defs3805" />
  <sodipodi:namedview
     id="namedview3803"
     pagecolor="#505050"
     bordercolor="#eeeeee"
     borderopacity="1"
     inkscape:showpageshadow="0"
     inkscape:pageopacity="0"
     inkscape:pagecheckerboard="0"
     inkscape:deskcolor="#505050"
     showgrid="false"
     inkscape:zoom="1.4142136"
     inkscape:cx="133.99674"
     inkscape:cy="246.07316"
     inkscape:window-width="1920"
     inkscape:window-height="1017"
     inkscape:window-x="-8"
     inkscape:window-y="-8"
     inkscape:window-maximized="1"
     inkscape:current-layer="g3783" />
  <path
     d="m 0,445.38536 h 95.683 c -1.298,-21.313 7.385,-111.33 13.005,-122.34 17.031,-33.354 -21.273,-48.694 -74.046,-51.17 -3.449,-0.162 -5.277,-0.038 -8.729,-0.066 l 0.08,2.066 c -0.748,0.882 -5.91,30.061 -6.832,40.005 -2.509,27.05 -14.317,75.516 -19.161,131.5 z"
     fill="#f0d0b4"
     id="path3725" />
  <path
     d="m 41.78,334.38536 c 6.869,5.608 14.777,9.688 23.729,11.827 12.73,3.042 -6.103,42.832 6.414,26.855 32.188,-41.087 31.129,-53.008 35.307,-66.186 17,-53.626 22.982,-4.693 0.55,-21.184 -15.756,-11.583 -22.656,-40.484 -28.379,-71.378 H 41.78 v 120.07 z"
     fill="#f0d0b4"
     id="path3727" />
  <path
     d="m 103.51,326.82536 c 11.572,-8.281 70.389,-50.869 75.713,-94.641 4.182,-34.392 -46.143,-28.105 -70.389,-19.322 -30.058,10.89 -38.952,24.341 -35.484,57.179 2.568,24.32 15.64,38.335 30.16,56.784"
     fill="#f0d0b4"
     id="path3729" />
  <g
     enable-background="new    "
     id="g3783"
     transform="translate(-114.22,-228.61464)">
    <polygon
       points="265.17,255.64 271.73,250.38 315.77,455.49 309.21,460.75 "
       fill="#bdbdbd"
       id="polygon3731" />
    <polygon
       points="148.61,274.1 155.18,268.84 271.73,250.38 265.17,255.64 "
       fill="#bdbdbd"
       id="polygon3733" />
    <g
       enable-background="new    "
       id="g3745">
      <defs
         id="defs3736">
        <path
           id="g"
           d="m 332.04,491.17 c -2.186,1.752 -4.373,3.506 -6.561,5.258 -0.797,0.639 -1.742,1.074 -2.801,1.24 l 6.563,-5.258 c 1.059,-0.168 2.004,-0.603 2.799,-1.24 z"
           enable-background="new    " />
      </defs>
      <clipPath
         id="h">
        <use
           overflow="visible"
           xlink:href="#g"
           id="use3738" />
      </clipPath>
      <g
         clip-path="url(#h)"
         enable-background="new    "
         id="g3743">
        <path
           d="m 332.04,491.17 -6.561,5.258 c -0.797,0.639 -1.742,1.074 -2.801,1.24 l 6.563,-5.258 c 1.059,-0.168 2.004,-0.603 2.799,-1.24"
           fill="#bfbfbf"
           id="path3741" />
      </g>
    </g>
    <g
       enable-background="new    "
       id="g3757">
      <defs
         id="defs3748">
        <path
           id="i"
           d="m 135.99,255.35 c 2.187,-1.752 4.375,-3.506 6.562,-5.259 -2.172,1.741 -3.243,4.997 -2.499,8.465 l -6.562,5.259 c -0.745,-3.468 0.326,-6.724 2.499,-8.465 z"
           enable-background="new    " />
      </defs>
      <clipPath
         id="j">
        <use
           overflow="visible"
           xlink:href="#i"
           id="use3750" />
      </clipPath>
      <g
         clip-path="url(#j)"
         enable-background="new    "
         id="g3755">
        <path
           d="m 140.06,258.55 -6.562,5.259 c -0.745,-3.468 0.326,-6.724 2.499,-8.465 l 6.562,-5.259 c -2.173,1.741 -3.244,4.997 -2.499,8.465"
           fill="#bfbfbf"
           id="path3753" />
      </g>
    </g>
    <polygon
       points="148.61,274.1 155.18,268.84 199.22,473.95 192.66,479.21 "
       fill="#4d4d4d"
       id="polygon3759" />
    <polygon
       points="199.22,473.95 155.18,268.84 271.73,250.38 315.78,455.49 "
       fill="#4d4d4d"
       id="polygon3761" />
    <polygon
       points="192.66,479.21 199.22,473.95 315.78,455.49 309.21,460.75 "
       fill="#4d4d4d"
       id="polygon3763" />
    <polygon
       points="195.41,517.82 201.98,512.57 329.24,492.41 322.67,497.67 "
       fill="#bdbdbd"
       id="polygon3765" />
    <polygon
       points="133.49,263.81 140.06,258.55 193,505.12 186.44,510.38 "
       fill="#bdbdbd"
       id="polygon3767" />
    <path
       d="m 272.61,228.69 c 3.948,-0.625 7.958,2.706 8.976,7.444 l 52.944,246.57 c 1.018,4.738 -1.346,9.08 -5.293,9.705 l -127.26,20.156 c -3.939,0.623 -7.958,-2.705 -8.976,-7.445 L 140.057,258.55 c -1.018,-4.738 1.354,-9.081 5.293,-9.705 z m 43.164,226.79 -44.042,-205.11 -116.56,18.461 44.042,205.11 116.56,-18.461"
       fill="#eeeeee"
       id="path3769" />
    <g
       enable-background="new    "
       id="g3781">
      <defs
         id="defs3772">
        <path
           id="k"
           d="m 201.98,512.57 -6.562,5.258 c -3.939,0.625 -7.958,-2.705 -8.976,-7.443 l 6.562,-5.26 c 1.018,4.74 5.037,8.068 8.976,7.445 z"
           enable-background="new    " />
      </defs>
      <clipPath
         id="l">
        <use
           overflow="visible"
           xlink:href="#k"
           id="use3774" />
      </clipPath>
      <g
         clip-path="url(#l)"
         enable-background="new    "
         id="g3779">
        <path
           d="m 201.98,512.57 -6.562,5.258 c -3.939,0.625 -7.958,-2.705 -8.976,-7.443 l 6.562,-5.26 c 1.018,4.74 5.037,8.068 8.976,7.445"
           fill="#bfbfbf"
           id="path3777" />
      </g>
    </g>
    <rect
       style="fill:#4d8cc9;fill-opacity:1;fill-rule:evenodd;stroke:#000000;stroke-width:0;paint-order:markers stroke fill"
       id="rect4479"
       width="108.60307"
       height="33.417946"
       x="107.38767"
       y="296.7511"
       transform="matrix(0.98774416,-0.15608163,0.18937949,0.98190397,0,0)"
       ry="4.5816169" />
    <rect
       style="fill:#4d8cc9;fill-opacity:1;fill-rule:evenodd;stroke:#000000;stroke-width:0;paint-order:markers stroke fill"
       id="rect4479-62"
       width="108.60307"
       height="33.417946"
       x="108.52101"
       y="377.48883"
       transform="matrix(0.98774416,-0.15608163,0.18937949,0.98190397,0,0)"
       ry="4.5816169" />
    <rect
       style="fill:#4d8cc9;fill-opacity:1;fill-rule:evenodd;stroke:#000000;stroke-width:0;paint-order:markers stroke fill"
       id="rect4479-62-1"
       width="108.60307"
       height="33.417946"
       x="109.11122"
       y="455.04221"
       transform="matrix(0.98774416,-0.15608163,0.18937949,0.98190397,0,0)"
       ry="4.5816169" />
    <rect
       style="fill:#c5c5c5;fill-opacity:1;fill-rule:evenodd;stroke:#000000;stroke-width:0;paint-order:markers stroke fill"
       id="rect4479-6"
       width="108.60307"
       height="33.417946"
       x="108.21414"
       y="337.16125"
       transform="matrix(0.98774416,-0.15608163,0.18937949,0.98190397,0,0)"
       ry="4.5816169" />
    <rect
       style="fill:#c5c5c5;fill-opacity:1;fill-rule:evenodd;stroke:#000000;stroke-width:0;paint-order:markers stroke fill"
       id="rect4479-6-8"
       width="108.60307"
       height="33.417946"
       x="108.5169"
       y="416.58328"
       transform="matrix(0.98774416,-0.15608163,0.18937949,0.98190397,0,0)"
       ry="4.5816169" />
  </g>
  <path
     d="m 49.29,258.15536 17.191,16.288 c -4.447,-23.063 1.019,-64.079 -8.873,-76.102 l 0.693,0.843 c -9.358,-24.01 3.119,-59.813 -17.158,-81.063 -6.04,-6.329 -18.492,-11.524 -20.967,-2.34 -0.567,2.105 5.495,17.879 7.855,28.855 2.508,11.664 -3.382,18.329 -1.075,38.355 1.28,11.11 -4.36,56.388 -2.467,67.58 2.426,14.338 0.496,30.081 2.773,44.674 2.793,17.9 10.163,33.55 22.027,42.856 v -79.946 z"
     fill="#f0d0b4"
     id="path3785" />
  <path
     d="m 33.45,133.21536 c -2.159,-9.027 -3.84,-24.595 -14.064,-23.584 -1.45,3.137 4.709,20.818 6.999,29.084 1.89,2.16 6.398,-0.113 7.065,-5.5 z"
     fill="#f5e0cd"
     id="path3787" />
  <path
     d="m 128.11,94.055364 c -0.375,-0.33 0.481,-1.818 -0.521,-0.547 -8.151,18.474996 5.086,40.073996 14.338,56.692996 10.028,18.012 17.968,38.433 21.534,57.836 2.338,12.725 4.734,26.483 3.85,39.949 -13.177,-9.64 -20.147,-25.924 -31.719,-37.268 -8.821,-8.646 -23.091,-24.113 -36.047,-25.228 0.141,4.461 4.498,9.479 6.063,13.881 1.687,4.745 3.188,9.432 5.004,14.166 4.244,11.069 9.453,21.987 14.001,33.037 5.579,13.554 6.958,20.88 14.219,33.685 0,0 14.673,-3.73 22.279,0.458 8.324,4.583 19.116,39.739 21.018,31.154 1.676,-7.557 3.449,-15.046 7.149,-22 9.042,-16.996 12.749,-33.838 14.869,-53.15 1.712,-15.603 2.121,-33.25 -6.852,-46.667 -7.979,-11.932 -14.433,-23.68 -21.166,-36.501 -4.199,-7.995 -7.664,-16.468 -13.351,-23.662 -4.608,-5.832 -10.76,-9.827 -15.335,-15.837 -5.637,-7.403 -12.573,-16.302996 -20,-21.332996"
     opacity="0.3"
     id="path3789" />
  <path
     d="m 133.5,248.62536 c 5.064,12.067 34.763,73.434 59.092,89.479 19.207,12.667 35.798,37.474 38.511,45.036 7.555,21.048 15.819,42.396 23.8,62.248 h 110.78 c -19.313,-29.479 -42.979,-64.297 -52.249,-93.671 5.878,-22.279 9.669,-95.798 3.471,-103.77 -5.525,-7.102 -10.373,-19.561 -10.373,-19.561 -1.014,-4.327 -14.243,-23.101 -28.042,-25.5 -9.52,-9.333 -24.06,-20.774 -34.713,-12.5 -8.955,-12.5 -23.5,-16 -32.493,-8.933 -11.67,-22.464 -5.688,-8.369 -17.561,-30.314 -11.23,-20.762 -19.486,-24.753 -34.721,-42.418 L 137.164,88.769364 c -13.238,-6.992 -11.668,14.383996 -8.627,23.026996 3.754,10.666 13.337,18.802 20.341,27.733 17.19,21.932 25.821,41.194 33.898,67.189 4.199,13.515 2.969,35.357 -4.607,44.888 -1.393,-3.659 -16.269,-11.629 -20.146,-22.164 -6.246,-16.976 -11.357,-30.258 -22.426,-39.112 -7.745,-6.197 -18.595,-14.257 -29.992,-11.397 -11.798,2.961 -1.914,13.107 2.981,21.585 8.875,15.37 18.213,32.137 24.913,48.105 z"
     fill="#f0d0b4"
     id="path3791" />
  <g
     fill="#f5e0cd"
     id="g3797"
     transform="translate(-114.22,-228.61464)">
    <path
       d="m 214.49,414.52 c 0.076,0.316 0.166,0.637 0.277,0.964 0.023,-0.045 0.049,-0.086 0.073,-0.13 -0.082,-0.245 -0.159,-0.478 -0.229,-0.689 -0.041,-0.048 -0.081,-0.097 -0.121,-0.145 z"
       id="path3793" />
    <path
       d="m 211.81,410.44 c 0.173,0.521 7.917,18.114 14.78,25.898 2.063,0.713 4.319,-0.116 6.713,-3.533 4.961,-7.08 -17.651,-29.297 -21.493,-22.365 z"
       id="path3795" />
  </g>
  <path
     d="m 148.52,98.875364 c 0,0 -12.911,-13.986 -18.911,-14.486 -2.842,-0.372 -2.691,2.406 -2.333,4.5 0.562,3.288 6.359,12.354996 9.207,14.249996 11.526,7.666 17.523,1.021 12.037,-4.263996 z"
     fill="#f5e0cd"
     id="path3799" />
</svg>
